<svg width="40" height="50" viewBox="0 0 40 50" fill="none" xmlns="http://www.w3.org/2000/svg">
<path fill-rule="evenodd" clip-rule="evenodd" d="M27.6509 43.8915C32.2317 43.8915 36.4841 42.4854 40 40.0813C36.0548 45.8508 29.4222 49.6371 21.9052 49.6371C9.80729 49.6371 0 39.8298 0 27.7319C0 20.2148 3.78643 13.5821 9.55609 9.63692C7.15187 13.1529 5.74571 17.4054 5.74571 21.9863C5.74571 34.0842 15.553 43.8915 27.6509 43.8915ZM4.33252 25.747C5.63837 37.7384 16.1245 46.433 27.7552 45.169C27.1644 45.2896 26.5631 45.3838 25.9522 45.4503C14.9691 46.6464 5.06584 38.4363 3.8327 27.1125C3.48445 23.9147 3.8649 20.8105 4.83761 17.9751C4.23259 20.4419 4.04027 23.0633 4.33252 25.747Z" fill="white"/>
<path fill-rule="evenodd" clip-rule="evenodd" d="M32.4975 40.0461C34.7877 40.0461 36.9137 39.4179 38.6716 38.3438C36.6992 40.9214 33.3831 42.613 29.6249 42.613C23.5764 42.613 20.8278 38.1697 20.8278 32.7648C20.8278 29.603 21.1869 22.4199 21.1869 22.4199H21.546C21.546 22.4199 21.9051 26.9888 22.2642 30.1977C22.8661 35.5757 26.449 40.0461 32.4975 40.0461ZM22.2834 35.6719C24.9886 39.9397 30.6872 41.8687 35.8281 40.3699C30.8842 42.4593 24.9643 40.6145 22.5545 36.211C22.4569 36.0327 22.3666 35.8529 22.2834 35.6719Z" fill="white"/>
<path fill-rule="evenodd" clip-rule="evenodd" d="M24.244 16.4205C24.244 16.4205 26.2531 11.4112 25.9058 8.15654C25.7438 6.63847 25.2074 5.01862 24.503 3.59479C24.4227 3.4324 24.3319 3.27187 24.2332 3.11432C24.1301 3.16018 24.0116 3.2088 23.8784 3.25723C23.3477 3.45022 22.5825 3.64071 21.6303 3.64071C20.678 3.64071 19.9128 3.45022 19.3821 3.25723C19.2468 3.20803 19.1267 3.15864 19.0224 3.11214C18.9252 3.27031 18.8359 3.43156 18.7574 3.59479C18.0373 5.09186 17.5425 6.76479 17.4219 8.3581C17.181 11.5405 19.0837 16.4205 19.0837 16.4205L19.7408 16.6811C19.4939 15.1938 19.3839 13.9868 19.5667 13.5474C20.191 12.0467 20.6821 11.5611 21.7328 11.1359C22.9773 11.8184 23.365 12.3761 23.7441 13.5474C23.8608 13.9079 23.7151 15.1789 23.4575 16.7657L24.244 16.4205ZM21.6303 10.4177C22.8202 10.4177 23.7849 9.45306 23.7849 8.2631C23.7849 7.07314 22.8202 6.10849 21.6303 6.10849C20.4403 6.10849 19.4757 7.07314 19.4757 8.2631C19.4757 9.45306 20.4403 10.4177 21.6303 10.4177Z" fill="white"/>
<path d="M21.6201 0.362881C21.6201 0.362881 22.8123 1.24944 23.7529 2.43806C23.7054 2.45713 23.655 2.47651 23.6016 2.49593C23.1448 2.66204 22.4735 2.83065 21.6303 2.83065C20.787 2.83065 20.1158 2.66204 19.659 2.49593C19.6017 2.47512 19.5479 2.45436 19.4975 2.43398C20.4287 1.24514 21.6201 0.362881 21.6201 0.362881Z" fill="white"/>
<path d="M23.0667 8.2631C23.0667 9.05641 22.4236 9.69951 21.6303 9.69951C20.837 9.69951 20.1939 9.05641 20.1939 8.2631C20.1939 7.4698 20.837 6.8267 21.6303 6.8267C22.4236 6.8267 23.0667 7.4698 23.0667 8.2631Z" fill="#ACC080"/>
<path d="M19.9219 17.6976C19.7786 17.6683 19.6302 17.6357 19.4756 17.5998V19.3555C19.7729 19.4491 20.0471 19.5263 20.3064 19.5871C20.1689 18.9501 20.0377 18.3109 19.9219 17.6976Z" fill="white"/>
<path d="M22.9526 19.5884C23.2123 19.5275 23.487 19.4499 23.7848 19.3555V17.5998C23.6158 17.6386 23.4543 17.6735 23.2987 17.7046C23.1919 18.3154 23.0741 18.9527 22.9526 19.5884Z" fill="white"/>
<path d="M23.0395 13.5422C23.2922 14.362 21.6986 21.909 21.6986 21.909C21.6986 21.909 19.8383 14.5927 20.2545 13.5422C20.6707 12.4917 20.9981 12.1518 21.6986 11.8541C22.5283 12.3319 22.7867 12.7223 23.0395 13.5422Z" fill="white"/>
<path d="M13.8729 18.9592C14.2385 17.4632 15.3437 16.213 17.62 14.8722L16.8046 12.1877C13.6997 14.2105 13.2844 15.9676 13.8729 18.9592Z" fill="white"/>
<path d="M29.781 18.8602C29.3359 17.3859 28.1654 16.1966 25.8206 14.9795L26.4913 12.2552C29.6999 14.109 30.2086 15.8414 29.781 18.8602Z" fill="white"/>
<path d="M21.1869 32.1497L18.7567 28.0993" stroke="white" stroke-linecap="round" stroke-linejoin="round"/>
<path d="M22.5285 38.3049L19.3102 35.0866" stroke="white" stroke-linecap="round" stroke-linejoin="round"/>
<path d="M15.5485 28.624C18.2315 30.1656 18.5394 34.3453 18.5394 34.3453C18.5394 34.3453 14.6767 36.1608 11.9937 34.6192C9.31066 33.0776 8.82339 28.7627 8.82339 28.7627C8.82339 28.7627 12.8655 27.0824 15.5485 28.624Z" fill="#ACC080"/>
<path d="M23.6172 35.3899L24.7813 34.4429" stroke="white" stroke-linecap="round" stroke-linejoin="round"/>
<path d="M28.5359 27.9803C25.8529 29.5219 25.545 33.7017 25.545 33.7017C25.545 33.7017 29.4077 35.5171 32.0907 33.9755C34.7737 32.4339 35.261 28.1191 35.261 28.1191C35.261 28.1191 31.2189 26.4387 28.5359 27.9803Z" fill="#ACC080"/>
<path d="M16.9343 21.6691C18.8249 23.6238 18.0679 27.2284 18.0679 27.2284C18.0679 27.2284 14.3642 27.8216 12.4735 25.867C10.5829 23.9123 11.2213 20.1499 11.2213 20.1499C11.2213 20.1499 15.0436 19.7144 16.9343 21.6691Z" fill="#ACC080"/>
<path d="M21.997 31.3396L23.6171 28.0993" stroke="white" stroke-linecap="round" stroke-linejoin="round"/>
<path d="M25.2741 21.6031C23.3475 23.5224 24.0375 27.1404 24.0375 27.1404C24.0375 27.1404 27.7296 27.8023 29.6562 25.8831C31.5828 23.9638 31.0143 20.1903 31.0143 20.1903C31.0143 20.1903 27.2007 19.6839 25.2741 21.6031Z" fill="#ACC080"/>
</svg>
