<svg width="24" height="24" viewBox="0 0 24 24" fill="none" xmlns="http://www.w3.org/2000/svg">
<g clip-path="url(#clip0_1_138)">
<path d="M12 23.1429C18.154 23.1429 23.1428 18.154 23.1428 12C23.1428 5.84597 18.154 0.857147 12 0.857147C5.84594 0.857147 0.857117 5.84597 0.857117 12C0.857117 18.154 5.84594 23.1429 12 23.1429Z" stroke="#0C0C20" stroke-width="2" stroke-linecap="round" stroke-linejoin="round"/>
<path d="M1.71423 16.2857H4.71423C5.50988 16.2857 6.27294 15.9696 6.83555 15.407C7.39816 14.8444 7.71423 14.0814 7.71423 13.2857V10.7143C7.71423 9.91864 8.0303 9.15557 8.59291 8.59296C9.15552 8.03036 9.91858 7.71429 10.7142 7.71429C11.5099 7.71429 12.2729 7.39821 12.8356 6.83561C13.3982 6.273 13.7142 5.50993 13.7142 4.71429V0.977142" stroke="#0C0C20" stroke-width="2" stroke-linecap="round" stroke-linejoin="round"/>
<path d="M23.1428 11.8286C22.2845 11.3832 21.3326 11.1482 20.3657 11.1429H16.7142C15.9186 11.1429 15.1555 11.4589 14.5929 12.0215C14.0303 12.5841 13.7142 13.3472 13.7142 14.1429C13.7142 14.9385 14.0303 15.7016 14.5929 16.2642C15.1555 16.8268 15.9186 17.1429 16.7142 17.1429C17.2826 17.1429 17.8276 17.3686 18.2295 17.7705C18.6313 18.1723 18.8571 18.7174 18.8571 19.2857V20.7771" stroke="#0C0C20" stroke-width="2" stroke-linecap="round" stroke-linejoin="round"/>
</g>
<defs>
<clipPath id="clip0_1_138">
<rect width="24" height="24" fill="white"/>
</clipPath>
</defs>
</svg>
