<svg width="24" height="24" viewBox="0 0 24 24" fill="none" xmlns="http://www.w3.org/2000/svg">
<mask id="path-1-outside-1_1_144" maskUnits="userSpaceOnUse" x="3" y="1" width="18" height="22" fill="black">
<rect fill="white" x="3" y="1" width="18" height="22"/>
<path d="M19 14.5714C19 18.1218 15.866 21 12 21C8.13401 21 5 18.1218 5 14.5714C5 10.0507 9.64371 5.21778 11.3667 3.5802C11.7251 3.2395 12.2749 3.2395 12.6333 3.5802C14.3563 5.21777 19 10.0507 19 14.5714Z"/>
</mask>
<path d="M19 14.5714C19 18.1218 15.866 21 12 21C8.13401 21 5 18.1218 5 14.5714C5 10.0507 9.64371 5.21778 11.3667 3.5802C11.7251 3.2395 12.2749 3.2395 12.6333 3.5802C14.3563 5.21777 19 10.0507 19 14.5714Z" stroke="#0C0C20" stroke-width="4" mask="url(#path-1-outside-1_1_144)"/>
<path d="M12 18C11.4747 18 10.9546 17.8965 10.4693 17.6955C9.98396 17.4945 9.54301 17.1999 9.17157 16.8284C8.80014 16.457 8.5055 16.016 8.30448 15.5307C8.10346 15.0454 8 14.5253 8 14" stroke="#0C0C20" stroke-width="2" stroke-linecap="round"/>
</svg>
